# xmcd
#
# Track frame offsets: 
#        150
#        22942
#        46202
#        69241
#        85767
#        104667
#        132198
#        150043
#        177565
#        208061
#        231676
#
# Disc length: 3562 seconds
#
# Revision: 1
# Processed by: cddbd v1.5.2PL0 Copyright (c) Steve Scherf et al.
# Submitted via: ExactAudioCopy v0.99pb5
#
DISCID=8c0de80b
DTITLE=Awek - Messin' with the blues
DYEAR=2004
DGENRE=Blues
TTITLE0=Don't do it
TTITLE1=He's fat
TTITLE2=Listen pretty babe
TTITLE3=Shake that thing
TTITLE4=My Lil' sister
TTITLE5=Early in the morning
TTITLE6=I'm so tired
TTITLE7=The girl I've found
TTITLE8=Voodoo man
TTITLE9=Boogie please my mind
TTITLE10=I move along (live)
EXTD=
EXTT0=
EXTT1=
EXTT2=
EXTT3=
EXTT4=
EXTT5=
EXTT6=
EXTT7=
EXTT8=
EXTT9=
EXTT10=
PLAYORDER=
